<?xml version="1.0" encoding="UTF-8"?><svg id="Layer_2" xmlns="http://www.w3.org/2000/svg" viewBox="0 0 1515.91 311.95"><defs><style>.cls-1{fill:#d9e021;}</style></defs><g id="Layer_1-2"><path class="cls-1" d="M131.08,276.15c4.6,0,7.04,3.12,9.28,7.81l.28.58,7.37-5.16-.18-.41c-3.37-7.68-8.31-11.11-16.03-11.11-12.59,0-22.83,11.47-22.83,25.56,0,10.9,7.05,18.52,17.15,18.52,7.81,0,13.6-3.4,18.78-11.02l.28-.41-6.22-5.31-.35.48c-4.06,5.66-7.47,7.97-11.77,7.97-6.65,0-9.01-5.59-9.01-10.38,0-10.09,5.45-17.13,13.25-17.13Z"/><polygon class="cls-1" points="164.12 301.34 171.04 268.87 162.66 268.87 153.73 310.94 185.11 310.94 186.78 303.09 165.52 303.09 164.12 301.34"/><path class="cls-1" d="M219.53,268.87l-26.13,42.07h9.35l6.76-11.14h16.82l1.51,11.14h8.6l-6.72-42.07h-10.19ZM225.14,291.4l-1.19.97h-9.03l-.53-.65,7.69-12.63h1.37l1.69,12.3Z"/><path class="cls-1" d="M271.51,268.87h-17.55l-8.93,42.07h8.45l3.38-15.74h7.06l8.05,15.74h9.36l-8.16-15.65.17-.75c8.1-1.69,12.74-6.69,12.74-13.77,0-5.43-2.53-11.91-14.56-11.91ZM260.37,278.64l2.29-1.91h7.28c6.66,0,7.43,2.68,7.43,4.7,0,3.98-3.04,5.92-9.3,5.92h-9.53l1.83-8.71Z"/><polygon class="cls-1" points="298.08 276.73 307.55 276.73 308.95 278.48 304.08 301.18 301.8 303.09 292.49 303.09 290.82 310.94 321.56 310.94 323.23 303.09 313.76 303.09 312.36 301.34 317.23 278.64 319.52 276.73 328.82 276.73 330.49 268.87 299.75 268.87 298.08 276.73"/><polygon class="cls-1" points="338.95 276.73 352.59 276.73 353.99 278.48 347.07 310.94 355.67 310.94 362.55 278.64 364.84 276.73 378.31 276.73 379.98 268.87 340.62 268.87 338.95 276.73"/><polygon class="cls-1" points="419.77 268.87 405.61 284.54 403.76 284.54 396.21 268.87 386.59 268.87 398.74 294.43 395.26 310.94 403.72 310.94 407.15 294.62 430.38 268.87 419.77 268.87"/><path class="cls-1" d="M553.45,276.15c4.6,0,7.04,3.12,9.28,7.81l.28.58,7.37-5.16-.18-.41c-3.37-7.68-8.31-11.11-16.03-11.11-12.59,0-22.83,11.47-22.83,25.56,0,10.9,7.05,18.52,17.15,18.52,7.81,0,13.6-3.4,18.78-11.02l.28-.41-6.22-5.31-.35.48c-4.06,5.66-7.47,7.97-11.77,7.97-6.65,0-9.01-5.59-9.01-10.38,0-10.09,5.45-17.13,13.25-17.13Z"/><path class="cls-1" d="M598.89,267.87c-12.14,0-22.4,11.67-22.4,25.49,0,11.64,6.38,18.59,17.08,18.59,12.14,0,22.4-11.67,22.4-25.49,0-11.64-6.38-18.59-17.08-18.59ZM607.11,286.46c0,8.69-4.65,17.49-13.54,17.49-5.07,0-8.22-4.06-8.22-10.59,0-8.69,4.65-17.49,13.54-17.49,5.07,0,8.22,4.06,8.22,10.59Z"/><polygon class="cls-1" points="651.73 296.26 650.41 296.26 640.99 268.87 630.6 268.87 621.67 310.94 629.62 310.94 635.94 281.33 637.26 281.33 647.69 310.94 656.57 310.94 665.5 268.87 657.55 268.87 651.73 296.26"/><path class="cls-1" d="M695.49,294.18c-1.48,6.91-4.78,10.13-10.39,10.13-6.48,0-7.91-6.04-8.22-8.64l-.1-.81-7.87,4.31.06.38c1.09,7.42,7.46,12.4,15.85,12.4,9.49,0,16.75-6.53,18.94-17.04l5.53-26.04h-8.46l-5.34,25.3Z"/><path class="cls-1" d="M742.62,294.75h0c-1.27,6.15-4.79,9.27-10.46,9.27-4.47,0-7.36-2.69-7.36-6.85,0-.68.07-1.36.2-2.11l5.53-26.18h-8.45l-5.41,25.66c-.3,1.36-.44,2.54-.44,3.71,0,9,7.62,13.7,15.14,13.7,9.91,0,17.36-6.12,19.44-15.96l5.75-27.11h-8.45l-5.48,25.88Z"/><path class="cls-1" d="M787.34,268.87h-17.55l-8.93,42.07h8.45l3.38-15.74h7.06l8.05,15.74h9.36l-8.16-15.65.17-.75c8.1-1.69,12.74-6.69,12.74-13.77,0-5.43-2.53-11.91-14.57-11.91ZM776.2,278.64l2.29-1.91h7.28c6.66,0,7.43,2.68,7.43,4.7,0,3.98-3.04,5.92-9.3,5.92h-9.53l1.83-8.71Z"/><polygon class="cls-1" points="813.91 276.73 823.38 276.73 824.78 278.48 819.91 301.18 817.62 303.09 808.32 303.09 806.65 310.94 837.39 310.94 839.06 303.09 829.59 303.09 828.19 301.34 833.05 278.64 835.34 276.73 844.64 276.73 846.31 268.87 815.58 268.87 813.91 276.73"/><polygon class="cls-1" points="878.96 296.26 877.64 296.26 868.22 268.87 857.83 268.87 848.9 310.94 856.85 310.94 863.17 281.33 864.49 281.33 874.92 310.94 883.8 310.94 892.73 268.87 884.78 268.87 878.96 296.26"/><path class="cls-1" d="M915.48,295.06h10.57l-.77,3.58c-3.05,3.53-6.08,5.24-9.26,5.24-5.98,0-8.65-5.1-8.65-10.16,0-10.01,5.94-17.56,13.82-17.56,4.49,0,7.57,2.47,9.4,7.54l.24.67,7.2-4.97-.16-.41c-3-7.49-8.22-11.13-15.96-11.13-12.73,0-23.48,11.84-23.48,25.85,0,10.39,6.6,18.23,15.36,18.23,3.4,0,6.54-1.38,9.13-3.99l.33.23-.57,2.75h8.09l4.98-23.31h-18.66l-1.6,7.42Z"/><path class="cls-1" d="M1061.67,276.15c4.6,0,7.04,3.12,9.28,7.81l.28.58,7.37-5.16-.18-.41c-3.37-7.68-8.31-11.11-16.03-11.11-12.59,0-22.83,11.47-22.83,25.56,0,10.9,7.05,18.52,17.15,18.52,7.81,0,13.6-3.4,18.78-11.02l.28-.41-6.22-5.31-.35.48c-4.07,5.66-7.48,7.97-11.77,7.97-6.65,0-9.01-5.59-9.01-10.38,0-10.09,5.45-17.13,13.25-17.13Z"/><path class="cls-1" d="M1111.89,294.75h0c-1.27,6.15-4.79,9.27-10.46,9.27-4.47,0-7.36-2.69-7.36-6.85,0-.68.07-1.35.2-2.11l5.53-26.18h-8.45l-5.41,25.66c-.3,1.36-.44,2.54-.44,3.71,0,9,7.62,13.7,15.14,13.7,9.91,0,17.36-6.12,19.44-15.96l5.75-27.11h-8.45l-5.48,25.88Z"/><path class="cls-1" d="M1156.61,268.87h-17.55l-8.93,42.07h8.45l3.38-15.74h7.06l8.05,15.74h9.36l-8.16-15.65.17-.75c8.1-1.69,12.74-6.69,12.74-13.77,0-5.43-2.53-11.91-14.56-11.91ZM1162.46,281.43c0,3.98-3.04,5.92-9.3,5.92h-9.53l1.84-8.71,2.29-1.91h7.28c6.66,0,7.43,2.68,7.43,4.7Z"/><path class="cls-1" d="M1202.9,268.87h-17.55l-8.93,42.07h8.45l3.38-15.74h7.05l8.05,15.74h9.36l-8.16-15.65.17-.75c8.1-1.69,12.74-6.69,12.74-13.77,0-5.43-2.53-11.91-14.57-11.91ZM1208.75,281.43c0,3.98-3.04,5.92-9.3,5.92h-9.53l1.84-8.71,2.29-1.91h7.28c6.66,0,7.43,2.68,7.43,4.7Z"/><polygon class="cls-1" points="1222.7 310.94 1256.96 310.94 1258.63 303.09 1234.5 303.09 1233.1 301.34 1234.82 293.26 1256.82 293.26 1258.49 285.41 1236.5 285.41 1237.96 278.64 1240.25 276.73 1263.5 276.73 1265.17 268.87 1231.63 268.87 1222.7 310.94"/><polygon class="cls-1" points="1298.04 296.26 1296.72 296.26 1287.3 268.87 1276.9 268.87 1267.98 310.94 1275.93 310.94 1282.25 281.33 1283.57 281.33 1294 310.94 1302.88 310.94 1311.81 268.87 1303.86 268.87 1298.04 296.26"/><path class="cls-1" d="M1339.94,276.15c4.6,0,7.04,3.12,9.28,7.81l.28.58,7.37-5.16-.18-.41c-3.37-7.68-8.31-11.11-16.03-11.11-12.59,0-22.83,11.47-22.83,25.56,0,10.9,7.05,18.52,17.15,18.52,7.81,0,13.6-3.4,18.78-11.02l.28-.41-6.22-5.31-.35.48c-4.06,5.66-7.48,7.97-11.77,7.97-6.65,0-9.01-5.59-9.01-10.38,0-10.09,5.45-17.13,13.25-17.13Z"/><polygon class="cls-1" points="1396.34 268.87 1382.18 284.54 1380.33 284.54 1372.78 268.87 1363.16 268.87 1375.31 294.43 1371.83 310.94 1380.28 310.94 1383.72 294.62 1406.95 268.87 1396.34 268.87"/><rect class="cls-1" x="957.24" y="283.57" width="62.99" height="9.33"/><rect class="cls-1" x="449.02" y="283.57" width="62.99" height="9.33"/><polygon class="cls-1" points="482.36 98.87 497.23 98.87 489.88 76.07 482.36 98.87"/><path class="cls-1" d="M990.98,81.67c0-2.64-.82-4.77-2.45-6.37-1.63-1.61-4.09-2.41-7.35-2.41h-9.97v17.57h9.07c3.54,0,6.21-.8,8.01-2.41,1.8-1.61,2.7-3.73,2.7-6.37Z"/><path class="cls-1" d="M824.6,72.89h-8.99v17h8.99c2.99,0,5.26-.79,6.78-2.37,1.52-1.58,2.29-3.61,2.29-6.09s-.76-4.52-2.29-6.13c-1.53-1.61-3.79-2.41-6.78-2.41Z"/><polygon class="cls-1" points="890.95 98.87 905.83 98.87 898.47 76.07 890.95 98.87"/><path class="cls-1" d="M402.77,73.29h-7.52v35.55h7.52c5.01,0,9.07-1.69,12.18-5.07,2.94-3.27,4.41-7.49,4.41-12.67s-1.47-9.56-4.41-12.83c-3.05-3.32-7.11-4.98-12.18-4.98Z"/><path class="cls-1" d="M1313.85,81.67c0-2.64-.82-4.77-2.45-6.37-1.63-1.61-4.09-2.41-7.35-2.41h-9.97v17.57h9.07c3.54,0,6.21-.8,8.01-2.41,1.8-1.61,2.7-3.73,2.7-6.37Z"/><path class="cls-1" d="M0,0v182.22h1515.91V0H0ZM165.78,117.59h-9.72v-40.29l-15.04,34.49h-6.29l-15.53-35.63v41.43h-9.64v-53.04h13.81l14.55,31.54,14.55-31.54h13.32v53.04ZM248.73,111.86c-4.25,4.58-10.05,6.86-17.41,6.86s-13.07-2.34-17.32-7.03c-4.47-4.85-6.7-11.74-6.7-20.67s2.23-15.96,6.7-20.76c4.19-4.52,10-6.78,17.41-6.78,3.54,0,6.78.59,9.72,1.76,2.94,1.17,5.48,2.9,7.6,5.19,4.47,4.79,6.7,11.66,6.7,20.59s-2.23,15.94-6.7,20.84ZM340.33,117.59h-9.81l-24.11-38.9v38.9h-9.64v-53.04h10.54l23.37,37.59v-37.59h9.64v53.04ZM422.3,110.39c-4.96,4.79-11.47,7.19-19.53,7.19h-17.24v-53.04h17.24c8.06,0,14.57,2.4,19.53,7.19,5.01,4.8,7.52,11.25,7.52,19.37s-2.51,14.49-7.52,19.29ZM503.28,117.59l-3.68-11.44h-19.69l-3.76,11.44h-10.22l18.06-53.04h12.09l17.41,53.04h-10.21ZM572.25,95.68v21.9h-9.64v-21.9l-18.22-31.13h11.44l11.69,21.17,12.26-21.17h11.36l-18.88,31.13ZM716.24,95.32h-15.93v15.85h-9.64v-15.85h-15.93v-8.42h15.93v-15.85h9.64v15.85h15.93v8.42ZM838.61,93.93c-3.35,2.92-8.02,4.37-14.01,4.37h-8.99v19.29h-9.72v-53.04h18.71c5.99,0,10.66,1.46,14.01,4.37,3.35,2.92,5.03,7.08,5.03,12.5s-1.67,9.59-5.03,12.5ZM911.87,117.59l-3.68-11.44h-19.69l-3.76,11.44h-10.21l18.06-53.04h12.09l17.41,53.04h-10.21ZM990.24,117.59l-11.69-20.67h-7.36v20.67h-9.64v-53.04h19.61c6.26,0,11.14,1.5,14.63,4.49,3.43,2.89,5.15,6.81,5.15,11.77,0,3.76-1.06,6.97-3.19,9.64-2.12,2.67-5.18,4.52-9.15,5.56l14.22,21.57h-12.58ZM1079.64,72.89h-16.42v44.7h-9.64v-44.7h-16.42v-8.34h42.49v8.34ZM1161.2,117.59h-9.81l-24.11-38.9v38.9h-9.64v-53.04h10.54l23.37,37.59v-37.59h9.64v53.04ZM1240.54,72.89h-24.52v13.97h22.96v8.34h-22.96v13.97h24.52v8.42h-34.16v-53.04h34.16v8.34ZM1313.11,117.59l-11.69-20.67h-7.36v20.67h-9.64v-53.04h19.61c6.26,0,11.14,1.5,14.63,4.49,3.43,2.89,5.15,6.81,5.15,11.77,0,3.76-1.06,6.97-3.19,9.64-2.12,2.67-5.18,4.52-9.15,5.56l14.22,21.57h-12.58ZM1400.96,114.52c-3.6,2.81-8.72,4.21-15.36,4.21-5.88,0-10.65-1.44-14.3-4.33-4.09-3.16-6.24-7.63-6.45-13.4h9.56c0,4.36,2.26,7.11,6.78,8.25,1.36.38,3.16.57,5.39.57s4.3-.56,6.21-1.67c1.91-1.12,2.86-2.62,2.86-4.49s-.52-3.32-1.55-4.33c-1.04-1.01-2.72-1.95-5.07-2.82l-10.54-4.17c-4.09-1.58-7.22-3.43-9.4-5.56-2.18-2.12-3.27-5.07-3.27-8.83,0-4.41,1.72-7.9,5.15-10.46,3.49-2.67,8.21-4,14.18-4s10.57,1.38,13.81,4.13c3.24,2.75,5.11,6.61,5.6,11.56h-9.56c-.87-4.63-4.14-6.95-9.81-6.95-2.78,0-4.94.56-6.5,1.68-1.55,1.12-2.33,2.47-2.33,4.05s.5,2.82,1.51,3.72c1.01.9,2.57,1.73,4.7,2.49l11.52,4.49c3.92,1.53,6.95,3.45,9.07,5.76,2.13,2.32,3.19,5.22,3.19,8.7,0,4.79-1.8,8.59-5.39,11.4Z"/><path class="cls-1" d="M231.4,72.15c-4.3,0-7.74,1.65-10.3,4.94-2.56,3.3-3.84,7.98-3.84,14.06s1.28,10.73,3.84,13.97c2.56,3.24,5.99,4.86,10.3,4.86s7.72-1.62,10.26-4.86c2.53-3.24,3.8-7.9,3.8-13.97s-1.27-10.76-3.8-14.06c-2.53-3.3-5.95-4.94-10.26-4.94Z"/></g></svg>