<?xml version="1.0" encoding="UTF-8"?>
<svg id="Layer_2" data-name="Layer 2" xmlns="http://www.w3.org/2000/svg" width="566.31" height="566.31" viewBox="0 0 566.31 566.31">
  <defs>
    <style>
      .cls-1 {
        fill: #03243c;
      }
    </style>
  </defs>
  <g id="Layer_1-2" data-name="Layer 1">
    <g>
      <path class="cls-1" d="M326.95,269.97l-2.29,1.91-1.83,8.71h9.53c6.26,0,9.3-1.94,9.3-5.92,0-2.02-.77-4.7-7.43-4.7h-7.28Z"/>
      <path class="cls-1" d="M290.85,146.33c0-2.02-.77-4.7-7.43-4.7h-7.28l-2.29,1.91-1.83,8.71h9.53c6.26,0,9.3-1.94,9.3-5.92Z"/>
      <path class="cls-1" d="M214.93,398.32h-7.28l-2.29,1.91-1.84,8.71h9.53c6.26,0,9.3-1.94,9.3-5.92,0-2.02-.77-4.7-7.43-4.7Z"/>
      <polygon class="cls-1" points="237.43 157.28 238.62 156.31 236.93 144.01 235.56 144.01 227.87 156.64 228.4 157.28 237.43 157.28"/>
      <path class="cls-1" d="M147.36,269.11c-8.89,0-13.54,8.8-13.54,17.49,0,6.53,3.15,10.59,8.22,10.59,8.89,0,13.54-8.8,13.54-17.49,0-6.53-3.15-10.59-8.22-10.59Z"/>
      <path class="cls-1" d="M261.22,398.32h-7.28l-2.29,1.91-1.84,8.71h9.53c6.26,0,9.3-1.94,9.3-5.92,0-2.02-.77-4.7-7.43-4.7Z"/>
      <path class="cls-1" d="M0,0v566.31h566.31V0H0ZM409.69,133.78l7.55,15.67h1.85l14.16-15.67h10.61l-23.23,25.75-3.44,16.32h-8.45l3.48-16.51-12.15-25.56h9.62ZM406.29,262.12h10.4l9.41,27.39h1.32l5.82-27.39h7.95l-8.93,42.07h-8.88l-10.42-29.61h-1.32l-6.32,29.61h-7.95l8.93-42.07ZM378.05,296.33h9.47l-1.67,7.85h-30.74l1.67-7.85h9.3l2.29-1.91,4.87-22.7-1.4-1.75h-9.47l1.67-7.86h30.73l-1.67,7.86h-9.3l-2.29,1.91-4.87,22.7,1.4,1.75ZM354.1,133.78h39.36l-1.67,7.86h-13.47l-2.29,1.91-6.88,32.31h-8.6l6.92-32.47-1.4-1.75h-13.64l1.67-7.86ZM350.37,274.03c0,7.07-4.64,12.07-12.74,13.77l-.17.75,8.16,15.65h-9.36l-8.05-15.74h-7.06l-3.38,15.74h-8.45l8.93-42.07h17.55c12.04,0,14.57,6.47,14.57,11.91ZM280.62,297.27c5.67,0,9.19-3.12,10.46-9.26h0s5.48-25.88,5.48-25.88h8.45l-5.75,27.11c-2.08,9.84-9.53,15.96-19.44,15.96-7.52,0-15.14-4.71-15.14-13.7,0-1.17.14-2.35.44-3.71l5.41-25.66h8.45l-5.53,26.18c-.14.76-.2,1.44-.2,2.11,0,4.16,2.89,6.85,7.36,6.85ZM314.65,342.66v9.33h-62.99v-9.33h62.99ZM305.97,167.99h9.3l2.29-1.91,4.87-22.7-1.4-1.75h-9.47l1.67-7.86h30.74l-1.67,7.86h-9.3l-2.29,1.91-4.86,22.7,1.4,1.75h9.47l-1.67,7.85h-30.74l1.67-7.85ZM267.45,133.78h17.55c12.04,0,14.56,6.47,14.56,11.91,0,7.07-4.64,12.07-12.74,13.77l-.17.75,8.16,15.65h-9.36l-8.05-15.74h-7.06l-3.38,15.74h-8.45l8.93-42.07ZM251.66,214.32h62.99v9.33h-62.99v-9.33ZM233.01,133.78h10.19l6.72,42.07h-8.6l-1.51-11.14h-16.82l-6.76,11.14h-9.35l26.13-42.07ZM176.14,133.78h8.38l-6.92,32.47,1.4,1.75h21.26l-1.67,7.85h-31.38l8.93-42.07ZM145.28,132.77c7.71,0,12.66,3.43,16.03,11.11l.18.41-7.37,5.16-.28-.58c-2.24-4.69-4.68-7.81-9.28-7.81-7.8,0-13.25,7.04-13.25,17.13,0,4.79,2.36,10.38,9.01,10.38,4.3,0,7.71-2.31,11.77-7.97l.35-.48,6.22,5.31-.28.41c-5.18,7.62-10.97,11.02-18.78,11.02-10.1,0-17.15-7.61-17.15-18.52,0-14.09,10.24-25.56,22.83-25.56ZM79.8,286.68c0-14.09,10.24-25.56,22.83-25.56,7.71,0,12.66,3.43,16.03,11.11l.18.41-7.37,5.16-.28-.58c-2.24-4.69-4.68-7.81-9.28-7.81-7.8,0-13.25,7.04-13.25,17.13,0,4.79,2.36,10.38,9.01,10.38,4.3,0,7.71-2.31,11.77-7.97l.35-.48,6.22,5.31-.28.41c-5.18,7.62-10.97,11.02-18.78,11.02-10.1,0-17.15-7.61-17.15-18.52ZM117.33,425.25c4.3,0,7.71-2.31,11.77-7.97l.35-.48,6.22,5.31-.28.41c-5.18,7.62-10.97,11.02-18.78,11.02-10.1,0-17.15-7.61-17.15-18.52,0-14.09,10.24-25.56,22.83-25.56,7.72,0,12.66,3.43,16.03,11.11l.18.41-7.37,5.16-.28-.58c-2.24-4.69-4.68-7.81-9.28-7.81-7.8,0-13.25,7.04-13.25,17.13,0,4.79,2.36,10.38,9.01,10.38ZM124.96,286.6c0-13.82,10.26-25.49,22.4-25.49,10.7,0,17.08,6.95,17.08,18.59,0,13.82-10.26,25.49-22.4,25.49-10.7,0-17.08-6.95-17.08-18.59ZM179.98,417.57c-2.08,9.84-9.53,15.96-19.44,15.96-7.52,0-15.14-4.71-15.14-13.7,0-1.17.14-2.35.44-3.71l5.41-25.66h8.45l-5.53,26.18c-.14.76-.2,1.44-.2,2.11,0,4.16,2.89,6.85,7.36,6.85,5.67,0,9.19-3.12,10.46-9.26h0s5.48-25.88,5.48-25.88h8.45l-5.75,27.11ZM184.41,274.58l-6.33,29.61h-7.95l8.93-42.07h10.4l9.42,27.39h1.32l5.82-27.39h7.95l-8.93,42.07h-8.88l-10.42-29.61h-1.32ZM218.34,416.13l-.17.75,8.16,15.65h-9.36l-8.05-15.74h-7.06l-3.38,15.74h-8.45l8.93-42.07h17.55c12.04,0,14.56,6.47,14.56,11.91,0,7.07-4.64,12.07-12.74,13.77ZM217.43,292.79l-.06-.38,7.87-4.31.1.81c.32,2.6,1.75,8.64,8.22,8.64,5.61,0,8.91-3.22,10.39-10.13l5.34-25.3h8.46l-5.53,26.04c-2.19,10.51-9.45,17.04-18.94,17.04-8.39,0-14.76-4.98-15.85-12.4ZM264.62,416.13l-.17.75,8.16,15.65h-9.36l-8.05-15.74h-7.05l-3.38,15.74h-8.45l8.93-42.07h17.55c12.04,0,14.57,6.47,14.57,11.91,0,7.07-4.64,12.07-12.74,13.77ZM323.4,398.32h-23.25l-2.29,1.91-1.47,6.77h21.99l-1.67,7.86h-21.99l-1.72,8.08,1.4,1.75h24.13l-1.67,7.85h-34.26l8.93-42.07h33.54l-1.67,7.86ZM362.78,432.53h-8.88l-10.42-29.61h-1.32l-6.32,29.61h-7.95l8.93-42.07h10.4l9.42,27.39h1.32l5.82-27.39h7.95l-8.93,42.07ZM395.6,425.25c4.3,0,7.71-2.31,11.77-7.97l.35-.48,6.22,5.31-.28.41c-5.18,7.62-10.97,11.02-18.78,11.02-10.1,0-17.15-7.61-17.15-18.52,0-14.09,10.24-25.56,22.83-25.56,7.72,0,12.66,3.43,16.03,11.11l.18.41-7.37,5.16-.28-.58c-2.24-4.69-4.68-7.81-9.28-7.81-7.8,0-13.25,7.04-13.25,17.13,0,4.79,2.36,10.38,9.01,10.38ZM443.62,416.21l-3.44,16.32h-8.45l3.48-16.51-12.15-25.56h9.62l7.55,15.67h1.85l14.16-15.67h10.61l-23.22,25.75ZM464.49,297.12c3.18,0,6.22-1.71,9.26-5.24l.77-3.58h-10.57l1.6-7.42h18.66l-4.98,23.31h-8.09l.57-2.75-.33-.23c-2.58,2.61-5.73,3.99-9.13,3.99-8.75,0-15.36-7.84-15.36-18.23,0-14.01,10.75-25.85,23.48-25.85,7.75,0,12.97,3.64,15.96,11.13l.16.41-7.2,4.97-.24-.67c-1.83-5.08-4.91-7.54-9.4-7.54-7.88,0-13.82,7.55-13.82,17.56,0,5.06,2.67,10.16,8.65,10.16Z"/>
    </g>
  </g>
</svg>